# xmcd
#
# Track frame offsets:
#	150
#	14906
#	34032
#	56960
#	78314
#	92846
#	112793
#	133065
#	150335
#	172572
#	188181
#	208148
#
# Disc length: 2918 seconds
# Revision: 0
# Processed by: cddbd v1.5.2PL0 Copyright (c) Steve Scherf et al.
# Submitted via: dBpowerAMP V12.0
#
DISCID=970b640c
DTITLE=The Railsplitters - The Faster It Goes
DYEAR=2015
DGENRE=Americana
TTITLE0=Tilt-A-Whirl
TTITLE1=Salt Salt Sea
TTITLE2=It's A Little Late
TTITLE3=You
TTITLE4=The Estuary
TTITLE5=Planted On The Ground
TTITLE6=Met That Day
TTITLE7=Goosetown
TTITLE8=Tell Me
TTITLE9=Danger
TTITLE10=Seasons
TTITLE11=Sweet Little Miss Blue Eyes
EXTD=
EXTT0=
EXTT1=
EXTT2=
EXTT3=
EXTT4=
EXTT5=
EXTT6=
EXTT7=
EXTT8=
EXTT9=
EXTT10=
EXTT11=
PLAYORDER=
